<?xml version="1.0" encoding="utf-8"?>
<!-- Generator: Adobe Illustrator 22.1.0, SVG Export Plug-In . SVG Version: 6.00 Build 0)  -->
<svg version="1.1" id="Layer_1" xmlns="http://www.w3.org/2000/svg" xmlns:xlink="http://www.w3.org/1999/xlink" x="0px" y="0px"
	 width="1200px" height="360px" viewBox="0 0 1200 360" style="enable-background:new 0 0 1200 360;" xml:space="preserve">
<style type="text/css">
	.st0{fill:#5767FF;}
	.st1{fill:none;stroke:#46474F;stroke-width:18;stroke-linecap:round;stroke-linejoin:round;stroke-miterlimit:10;}
	.st2{fill:#46474F;}
	.st3{fill:#A4ABBC;}
	.st4{fill:none;stroke:#FFFFFF;stroke-width:24;stroke-linecap:round;stroke-linejoin:round;stroke-miterlimit:10;}
	.st5{fill:none;stroke:#FFFFFF;stroke-width:24;stroke-linejoin:round;stroke-miterlimit:10;}
	.st6{fill:#FFFFFF;}
</style>
<path class="st0" d="M324,360H36c-19.8,0-36-16.2-36-36V36C0,16.2,16.2,0,36,0h288c19.8,0,36,16.2,36,36v288
	C360,343.8,343.8,360,324,360z"/>
<path class="st1" d="M832.8,184.5"/>
<g>
	<path class="st2" d="M495.9,90c2.5,0,4.6,0.8,6.4,2.5c1.7,1.8,2.5,4,2.5,6.4c0,28,0,70,0,125.9c0,2.5-0.8,4.6-2.5,6.4
		c-1.8,1.7-4,2.5-6.4,2.5c-2.5,0-4.6-0.8-6.4-2.5c-1.7-1.8-2.5-4-2.5-6.4c0-10.6,0-26.4,0-47.5c0-17.5,0-43.6,0-78.5
		c0-2.5,0.8-4.6,2.5-6.4C491.3,90.9,493.4,90,495.9,90z"/>
	<path class="st2" d="M577,126c5.2,0,10.2,0.7,15,2.1c4.8,1.4,9.3,3.4,13.5,5.9c7.7,4.8,13.9,11.3,18.6,19.3c4.7,8.1,7,17,7,26.8
		c0,5.1-0.7,10-2.1,14.8c-1.4,4.8-3.4,9.3-5.9,13.5c-4.8,7.7-11.3,13.9-19.3,18.6c-8.1,4.7-17,7-26.8,7c-9.6,0-18.5-2.3-26.6-7
		c-8.1-4.7-14.5-10.9-19.3-18.6c-2.5-4.2-4.4-8.7-5.9-13.5c-1.4-4.8-2.1-9.8-2.1-14.8c0-9.8,2.3-18.7,7-26.8
		c4.7-8.1,10.9-14.5,18.6-19.3c4.2-2.5,8.7-4.4,13.5-5.9C566.9,126.7,571.9,126,577,126z M613,180.1c0-10-3.5-18.6-10.6-25.6
		c-7-7-15.6-10.6-25.6-10.6c-9.9,0-18.4,3.5-25.4,10.6c-7,7-10.6,15.6-10.6,25.6c0,9.9,3.5,18.4,10.6,25.4c7,7,15.5,10.6,25.4,10.6
		c10,0,18.6-3.5,25.6-10.6C609.5,198.5,613,190,613,180.1z"/>
	<path class="st2" d="M703.1,234c-9.6,0-18.5-2.3-26.6-7c-8.1-4.7-14.5-10.9-19.3-18.6c-2.5-4.2-4.4-8.7-5.9-13.5
		c-1.4-4.8-2.1-9.8-2.1-14.8c0-9.8,2.3-18.7,7-26.8c4.7-8.1,10.9-14.5,18.6-19.3c4.2-2.5,8.7-4.4,13.5-5.9c4.8-1.4,9.8-2.1,14.8-2.1
		c9,0,17.5,2.1,25.4,6.3c7.9,4.2,14.5,10,19.5,17.4c1,1.6,1.6,3.3,1.6,5.1c0,0.5-0.1,1.1-0.2,1.8c-0.4,2.5-1.6,4.4-3.7,5.7
		c-2.2,1.4-4.5,2-6.8,1.6c-2.5-0.5-4.4-1.8-5.9-3.9c-3.4-4.9-7.7-8.9-12.9-11.7c-5.2-2.7-10.9-4.1-17-4.1c-9.9,0-18.4,3.5-25.4,10.6
		c-7,7.1-10.6,15.6-10.6,25.6c0,9.9,3.5,18.4,10.6,25.4s15.5,10.6,25.4,10.6c6.1,0,11.8-1.4,17-4.3c5.3-2.7,9.7-6.6,13.1-11.5
		c1.3-2,3.2-3.2,5.7-3.7c2.3-0.5,4.6-0.1,6.8,1.4c2,1.3,3.2,3.1,3.7,5.5c0.5,2.5,0.1,4.8-1.4,6.8c-5.1,7.6-11.5,13.4-19.3,17.6
		C720.7,232,712.2,234,703.1,234z"/>
	<path class="st2" d="M821.7,234c-9.6,0-18.5-2.3-26.6-7c-8.1-4.7-14.5-10.9-19.3-18.6c-2.5-4.2-4.4-8.7-5.9-13.5
		c-1.4-4.8-2.1-9.8-2.1-14.8c0-5.2,0.7-10.2,2.1-15c1.4-4.8,3.4-9.3,5.9-13.5c4.8-7.7,11.3-13.9,19.3-18.6c8.1-4.7,16.9-7,26.6-7
		c6.9,0,13.5,1.2,19.7,3.7c6.1,2.5,11.6,5.9,16.4,10.2c0-1,0-2.7,0-4.9c0-2.5,0.8-4.6,2.5-6.4c1.8-1.7,4-2.5,6.4-2.5
		c2.5,0,4.6,0.8,6.4,2.5c1.7,1.8,2.5,4,2.5,6.4c0,20.1,0,50.1,0,90.1c0,2.5-0.8,4.6-2.5,6.4c-1.8,1.7-4,2.5-6.4,2.5
		c-2.5,0-4.6-0.8-6.4-2.5c-1.7-1.8-2.5-4-2.5-6.4c0-1,0-2.7,0-4.9c-4.8,4.3-10.3,7.7-16.4,10.2C835.2,232.8,828.6,234,821.7,234z
		 M785.7,180.1c0,9.9,3.5,18.4,10.6,25.4c7,7,15.5,10.6,25.4,10.6c10,0,18.6-3.5,25.6-10.6c7-7.1,10.5-15.5,10.5-25.4
		c0-10-3.5-18.6-10.6-25.6S831.7,144,821.7,144c-9.9,0-18.4,3.5-25.4,10.6C789.3,161.6,785.7,170.1,785.7,180.1z"/>
	<path class="st2" d="M903.7,99c0-2.5,0.8-4.6,2.5-6.4c1.8-1.7,4-2.5,6.4-2.5c2.5,0,4.6,0.8,6.4,2.5c1.7,1.8,2.5,4,2.5,6.4
		c0,6,0,15,0,27c6,0,15,0,27,0c2.6,0,4.8,0.8,6.4,2.5c1.7,1.8,2.5,4,2.5,6.4c0,2.5-0.8,4.6-2.5,6.4c-1.7,1.7-3.8,2.5-6.4,2.5
		c-6,0-15,0-27,0c0,9.5,0,23.7,0,42.6c0,8.2,2.7,15.2,8.2,20.9c5.3,5.7,11.8,8.6,19.3,8.6c3.9,0,9.8,0,17.6,0c2.5,0,4.6,0.8,6.3,2.5
		c1.8,1.8,2.7,4,2.7,6.4c0,2.5-0.9,4.6-2.7,6.4c-1.7,1.7-3.8,2.5-6.3,2.5c-2.3,0-5.9,0-10.6,0c-1.6,0-3.9,0-7,0
		c-4.3,0-8.5-0.7-12.7-2c-4-1.2-7.8-2.9-11.3-5.1c-6.4-4.3-11.6-10-15.6-17c-3.9-7-5.9-14.8-5.9-23.4c0-7.3,0-18.3,0-33
		C903.7,141.4,903.7,123.3,903.7,99z"/>
	<path class="st2" d="M1037.7,126c5.2,0,10.2,0.7,15,2.1c4.8,1.4,9.3,3.4,13.5,5.9c7.7,4.8,13.9,11.3,18.6,19.3c4.7,8.1,7,17,7,26.8
		c0,5.1-0.7,10-2.1,14.8c-1.4,4.8-3.4,9.3-5.9,13.5c-4.8,7.7-11.3,13.9-19.3,18.6c-8.1,4.7-17,7-26.8,7c-9.6,0-18.5-2.3-26.6-7
		c-8.1-4.7-14.5-10.9-19.3-18.6c-2.5-4.2-4.4-8.7-5.9-13.5c-1.4-4.8-2.1-9.8-2.1-14.8c0-9.8,2.3-18.7,7-26.8s10.9-14.5,18.6-19.3
		c4.2-2.5,8.7-4.4,13.5-5.9C1027.7,126.7,1032.6,126,1037.7,126z M1073.8,180.1c0-10-3.5-18.6-10.6-25.6c-7.1-7-15.5-10.5-25.5-10.5
		c-9.9,0-18.4,3.5-25.4,10.6c-7,7-10.6,15.6-10.6,25.6c0,9.9,3.5,18.4,10.6,25.4c7,7,15.5,10.6,25.4,10.6c10,0,18.6-3.5,25.6-10.6
		C1070.3,198.5,1073.8,190,1073.8,180.1z"/>
	<path class="st2" d="M1109.9,225.1c0-11.7,0-29.3,0-52.8c0-8.3,2-16,5.9-22.9c3.9-6.9,9.1-12.4,15.4-16.6c3.4-2.1,7.1-3.8,11.1-5.1
		c4-1.2,8.2-1.8,12.5-1.8c8.1,0,15.5,2,22.3,6.1c6.8,3.9,12.1,9.2,16,15.8c2.2,3.5,3.9,7.3,5.1,11.3c1.2,4.2,1.8,8.5,1.8,13.1
		c0,2.5-0.9,4.6-2.7,6.3c-1.7,1.8-3.8,2.7-6.3,2.7s-4.6-0.9-6.4-2.7c-1.7-1.7-2.5-3.8-2.5-6.3c0-7.8-2.7-14.5-8-20.1
		c-5.3-5.5-11.7-8.2-19.1-8.2c-7.3,0-13.6,2.7-19,8.2c-5.3,5.6-8,12.3-8,20.1c0,11.7,0,29.3,0,52.8c0,2.5-0.8,4.6-2.5,6.4
		c-1.8,1.7-4,2.5-6.4,2.5c-2.5,0-4.6-0.8-6.4-2.5C1110.7,229.7,1109.9,227.5,1109.9,225.1z"/>
</g>
<g>
	<path class="st3" d="M657.3,280.5c5.1,0,9.1,1.1,12,3.3c3,2.2,4.4,5.3,4.4,9.2c0,1.5-0.3,2.8-0.8,4c-0.5,1.2-1.2,2.2-2.1,3
		c-0.8,0.8-1.8,1.5-2.8,2.1c-1,0.6-2.1,1-3.2,1.2c1.4,0.3,2.8,0.7,4,1.3c1.3,0.6,2.4,1.4,3.3,2.3c0.9,1,1.7,2.1,2.2,3.5
		s0.8,2.9,0.8,4.6c0,2-0.4,3.8-1.3,5.5c-0.9,1.7-2.1,3.1-3.7,4.3c-1.6,1.2-3.6,2.2-5.8,2.8c-2.3,0.7-4.8,1-7.6,1H640v-48
		L657.3,280.5L657.3,280.5z M650.6,299.6h5c2.3,0,4.1-0.5,5.5-1.5c1.4-1,2-2.5,2-4.5c0-1.8-0.6-3.1-1.9-4c-1.3-0.9-3.1-1.3-5.4-1.3
		h-5.2L650.6,299.6L650.6,299.6z M650.6,320.5h5c2.6,0,4.8-0.5,6.4-1.5c1.7-1,2.5-2.7,2.5-5.2c0-2.3-0.9-3.9-2.7-4.9
		c-1.8-1-4-1.5-6.6-1.5h-4.7L650.6,320.5L650.6,320.5z"/>
	<path class="st3" d="M698.4,280.5l10.2,18.7l10.3-18.7h11.3l-16.8,28.2v19.8h-10.4v-19.8l-16.5-28.2H698.4z"/>
	<path class="st3" d="M771.7,280.5h13.2l6.9,21.9c0.3,1,0.6,2,1,3.1c0.3,1.1,0.7,2.3,1,3.4c0.3,1.1,0.6,2.2,0.8,3.3
		c0.3,1.1,0.5,2.1,0.6,3h0.3c0.2-0.8,0.4-1.8,0.6-2.9c0.3-1.1,0.5-2.2,0.8-3.4c0.3-1.2,0.6-2.3,0.9-3.5c0.3-1.1,0.6-2.1,0.8-3.1
		l6.7-21.9h13.2l3.6,48h-9.8c-0.3-5.3-0.6-10.5-0.9-15.9c-0.3-5.3-0.5-10.6-0.6-16l-0.1-6.3h-0.2c-0.7,2.8-1.4,5.8-2.2,8.7
		c-0.8,3.1-1.5,5.8-2.3,8l-6.8,21.4h-8l-7-21.4c-0.9-2.8-1.7-5.7-2.5-8.6c-0.8-3.1-1.4-5.8-1.8-8h-0.2c0,1.8,0,3.8-0.1,5.8
		c-0.1,2-0.1,4-0.2,6c-0.1,2-0.2,3.9-0.2,5.9c-0.1,1.9-0.2,3.7-0.3,5.3l-0.9,15.3h-9.6L771.7,280.5z"/>
	<path class="st3" d="M850.2,280.5v48h-10.4v-48H850.2z"/>
	<path class="st3" d="M868.4,280.5h9.5l16.5,25.3c1.1,1.7,2.2,3.4,3.1,5.1c0.9,1.7,1.6,3,2,3.9h0.2c-0.3-3.3-0.5-6.6-0.5-9.8
		c0-3.3,0-6.6,0-9.9v-14.4h9.6v48h-9.5l-15.4-23.3c-0.7-1-1.3-2.1-2-3.2c-0.6-1.1-1.2-2.2-1.8-3.2c-0.6-1-1.1-2-1.5-2.8
		s-0.8-1.5-1-2.1h-0.2c0.3,3.5,0.4,6.9,0.4,10.1c0,3.2,0,6.6,0,9.8v14.5h-9.7v-48H868.4z"/>
	<path class="st3" d="M927.1,280.5h31.2v8h-20.8v10.9h18.8v8h-18.8v12.9h21.1v8h-31.5V280.5z"/>
	<path class="st3" d="M974.1,280.5h18.2c2.7,0,5.1,0.4,7.2,1.2c2.1,0.8,3.8,1.9,5.2,3.2c1.4,1.4,2.4,2.9,3.1,4.8
		c0.7,1.8,1,3.8,1,5.9c0,1.9-0.3,3.7-0.9,5.2c-0.6,1.5-1.3,2.8-2.2,3.9c-0.9,1.1-1.9,2-3,2.8c-1.1,0.7-2.2,1.3-3.2,1.8l11.7,19.5
		h-11.9l-9.2-17.7h-5.6v17.7h-10.3L974.1,280.5L974.1,280.5z M984.4,302.7h4.1c2.8,0,5-0.6,6.8-1.7c1.8-1.1,2.6-3,2.6-5.6
		c0-2.3-0.7-4.1-2.1-5.3c-1.4-1.3-3.5-1.9-6.2-1.9h-5.3L984.4,302.7L984.4,302.7z"/>
	<path class="st3" d="M1040.8,279.6c3.1,0,5.9,0.3,8.2,0.9s4.5,1.4,6.4,2.4l-2.4,7.7c-2.1-1-4.1-1.8-6.1-2.3
		c-1.9-0.5-3.8-0.8-5.7-0.8c-2.5,0-4.4,0.5-5.7,1.5c-1.4,1-2,2.3-2,3.9c0,1.7,0.6,3,1.8,3.8c1.2,0.9,3.1,1.7,5.7,2.5l4.6,1.5
		c3.8,1.3,6.8,3.1,8.9,5.4c2.2,2.4,3.3,5.2,3.3,8.6c0,2-0.4,4-1.2,5.8c-0.8,1.8-1.9,3.3-3.5,4.7c-1.5,1.3-3.5,2.4-5.8,3.1
		c-2.3,0.8-5,1.1-8,1.1c-5.8,0-11-1.2-15.8-3.5l2.4-7.7c2.2,1.1,4.3,1.9,6.4,2.5s4.3,0.9,6.6,0.9c2.7,0,4.8-0.5,6.1-1.5
		c1.4-1,2.1-2.4,2.1-4.2c0-0.6-0.1-1.2-0.3-1.8c-0.2-0.6-0.7-1.2-1.3-1.7c-0.6-0.5-1.4-1.1-2.5-1.6c-1-0.5-2.4-1.1-4.1-1.6l-4.1-1.4
		c-1.8-0.6-3.4-1.3-4.9-2.1c-1.5-0.8-2.7-1.8-3.8-2.8c-1-1.1-1.9-2.3-2.5-3.8c-0.6-1.5-0.9-3.2-0.9-5.1c0-2.1,0.4-4,1.1-5.8
		c0.8-1.8,1.9-3.3,3.4-4.6c1.5-1.3,3.4-2.3,5.6-3C1035.4,280,1037.9,279.6,1040.8,279.6z"/>
	<path class="st3" d="M1106.4,280.5v8.2h-13.6v39.7h-10.4v-39.7h-13.2v-8.2H1106.4z"/>
	<path class="st3" d="M1129.4,280.5h10.8l17.8,48h-11l-3.8-11h-17.1l-3.8,11h-10.9L1129.4,280.5z M1128.5,309.7h12.2l-2.2-6.4
		c-0.7-2-1.4-4-2-6s-1.2-4.1-1.8-6.1h-0.2c-0.6,1.9-1.2,3.9-1.8,5.9c-0.7,2-1.4,4.1-2.1,6.2L1128.5,309.7z"/>
	<path class="st3" d="M1200,280.5v8.2h-13.6v39.7h-10.3v-39.7h-13.2v-8.2H1200z"/>
</g>
<path class="st4" d="M237.6,168H122.4c-7.9,0-14.4-6.8-14.4-15.1V87.1c0-8.3,6.5-15.1,14.4-15.1h115.2c7.9,0,14.4,6.8,14.4,15.1
	v65.8C252,161.2,245.5,168,237.6,168z"/>
<line class="st4" x1="144" y1="204" x2="216" y2="204"/>
<line class="st5" x1="0" y1="288" x2="360" y2="288"/>
<g>
	<circle class="st0" cx="180" cy="288" r="24"/>
	<path class="st6" d="M180,276c6.6,0,12,5.4,12,12s-5.4,12-12,12s-12-5.4-12-12S173.4,276,180,276 M180,252c-19.9,0-36,16.1-36,36
		s16.1,36,36,36s36-16.1,36-36S199.9,252,180,252L180,252z"/>
</g>
</svg>
