<?xml version="1.0" encoding="utf-8"?>
<!-- Generator: Adobe Illustrator 23.1.0, SVG Export Plug-In . SVG Version: 6.00 Build 0)  -->
<svg version="1.1" id="Layer_1" xmlns="http://www.w3.org/2000/svg" xmlns:xlink="http://www.w3.org/1999/xlink" x="0px" y="0px"
	 width="360px" height="360px" viewBox="0 0 360 360" style="enable-background:new 0 0 360 360;" xml:space="preserve">
<style type="text/css">
	.st0{fill:none;stroke:#FFFFFF;stroke-width:24;stroke-linecap:round;stroke-linejoin:round;stroke-miterlimit:10;}
	.st1{fill:#FFFFFF;}
</style>
<path class="st0" d="M237.6,168H122.4c-7.9,0-14.4-6.8-14.4-15.1V87.1c0-8.3,6.5-15.1,14.4-15.1h115.2c7.9,0,14.4,6.8,14.4,15.1
	v65.8C252,161.2,245.5,168,237.6,168z"/>
<line class="st0" x1="144" y1="204" x2="216" y2="204"/>
<line class="st0" x1="204" y1="288" x2="348" y2="288"/>
<line class="st0" x1="13" y1="288" x2="153.6" y2="288"/>
<g>
	<path class="st1" d="M180,276c6.6,0,12,5.4,12,12s-5.4,12-12,12s-12-5.4-12-12S173.4,276,180,276 M180,252c-19.9,0-36,16.1-36,36
		s16.1,36,36,36s36-16.1,36-36S199.9,252,180,252L180,252z"/>
</g>
</svg>
