<?xml version="1.0" encoding="utf-8"?>
<!-- Generator: Adobe Illustrator 22.1.0, SVG Export Plug-In . SVG Version: 6.00 Build 0)  -->
<svg version="1.1" id="Layer_1" xmlns="http://www.w3.org/2000/svg" xmlns:xlink="http://www.w3.org/1999/xlink" x="0px" y="0px"
	 width="40px" height="60px" viewBox="0 0 40 60" style="enable-background:new 0 0 40 60;" xml:space="preserve">
<style type="text/css">
	.st0{fill:none;stroke:#464850;stroke-width:2;stroke-linecap:round;stroke-linejoin:round;stroke-miterlimit:10;}
	.st1{fill:none;stroke:#5FC2A1;stroke-width:2;stroke-linecap:round;stroke-linejoin:round;stroke-miterlimit:10;}
</style>
<line class="st0" x1="5" y1="5" x2="15" y2="15"/>
<line class="st0" x1="15" y1="5" x2="5" y2="15"/>
<line class="st1" x1="25" y1="5" x2="35" y2="15"/>
<line class="st1" x1="35" y1="5" x2="25" y2="15"/>
<line class="st0" x1="4" y1="30" x2="16" y2="30"/>
<line class="st1" x1="24" y1="30" x2="36" y2="30"/>
<line class="st0" x1="16" y1="50" x2="10" y2="50"/>
<polyline class="st0" points="14,47 17,50 14,53 "/>
<path class="st0" d="M15,43v-1H6c-1.1,0-2,0.9-2,2v12c0,1.1,0.9,2,2,2h9v-1"/>
<line class="st1" x1="36" y1="50" x2="30" y2="50"/>
<polyline class="st1" points="34,47 37,50 34,53 "/>
<path class="st1" d="M35,43v-1h-9c-1.1,0-2,0.9-2,2v12c0,1.1,0.9,2,2,2h9v-1"/>
</svg>
