<?xml version="1.0" encoding="utf-8"?>
<!-- Generator: Adobe Illustrator 22.1.0, SVG Export Plug-In . SVG Version: 6.00 Build 0)  -->
<svg version="1.1" id="Layer_1" xmlns="http://www.w3.org/2000/svg" xmlns:xlink="http://www.w3.org/1999/xlink" x="0px" y="0px"
	 width="54px" height="54px" viewBox="0 0 54 54" style="enable-background:new 0 0 54 54;" xml:space="preserve">
<style type="text/css">
	.st0{fill:#5767FF;}
	.st1{fill:#FFFFFF;}
</style>
<path class="st0" d="M48.6,54H5.4c-3,0-5.4-2.4-5.4-5.4V5.4C0,2.4,2.4,0,5.4,0h43.2c3,0,5.4,2.4,5.4,5.4v43.2
	C54,51.6,51.6,54,48.6,54z"/>
<path class="st1" d="M35.6,27H18.4c-2.2,0-4-1.8-4-4.1v-9.9c0-2.2,1.8-4.1,4-4.1h17.3c2.2,0,4,1.8,4,4.1v9.9
	C39.6,25.2,37.8,27,35.6,27z M18.4,12.6c-0.2,0-0.4,0.2-0.4,0.5v9.9c0,0.3,0.2,0.5,0.4,0.5h17.3c0.2,0,0.4-0.2,0.4-0.5v-9.9
	c0-0.3-0.2-0.5-0.4-0.5H18.4z"/>
<path class="st1" d="M32.4,32.4H21.6c-1,0-1.8-0.8-1.8-1.8s0.8-1.8,1.8-1.8h10.8c1,0,1.8,0.8,1.8,1.8S33.4,32.4,32.4,32.4z"/>
<rect y="41.4" class="st1" width="54" height="3.6"/>
<g>
	<circle class="st0" cx="27" cy="43.2" r="3.6"/>
	<path class="st1" d="M27,41.4c1,0,1.8,0.8,1.8,1.8S28,45,27,45s-1.8-0.8-1.8-1.8S26,41.4,27,41.4 M27,37.8c-3,0-5.4,2.4-5.4,5.4
		c0,3,2.4,5.4,5.4,5.4s5.4-2.4,5.4-5.4C32.4,40.2,30,37.8,27,37.8L27,37.8z"/>
</g>
</svg>
