<?xml version="1.0" encoding="utf-8"?>
<!-- Generator: Adobe Illustrator 22.1.0, SVG Export Plug-In . SVG Version: 6.00 Build 0)  -->
<svg version="1.1" id="Layer_1" xmlns="http://www.w3.org/2000/svg" xmlns:xlink="http://www.w3.org/1999/xlink" x="0px" y="0px"
	 width="320px" height="300px" viewBox="0 0 320 300" style="enable-background:new 0 0 320 300;" xml:space="preserve">
<style type="text/css">
	.st0{enable-background:new    ;}
	.st1{fill:#A3ABC3;}
	.st2{fill:none;stroke:#464850;stroke-width:2;stroke-linecap:round;stroke-linejoin:round;stroke-miterlimit:10;}
	.st3{fill:#FFFFFF;stroke:#464850;stroke-width:2;stroke-linecap:round;stroke-linejoin:round;stroke-miterlimit:10;}
	.st4{fill:#46474F;}
	.st5{fill:#5767FF;}
	.st6{fill:#FFFFFF;}
</style>
<g id="Layer_1_1_">
</g>
<g class="st0">
	<path class="st1" d="M44.5,294.1c-0.3-0.1-0.5-0.2-0.8-0.3c-0.2-0.1-0.5-0.1-0.8-0.1c-0.5,0-0.8,0.1-1.1,0.3s-0.4,0.4-0.4,0.7
		c0,0.3,0.1,0.5,0.3,0.6c0.2,0.2,0.5,0.3,1,0.5l0.4,0.1c0.6,0.2,1,0.4,1.3,0.7s0.5,0.7,0.5,1.2c0,0.6-0.2,1-0.6,1.4s-1,0.5-1.8,0.5
		c-0.4,0-0.8,0-1.2-0.1c-0.4-0.1-0.7-0.2-0.9-0.3l0.3-0.8c0.3,0.1,0.5,0.2,0.8,0.3c0.3,0.1,0.6,0.1,1,0.1c0.5,0,0.8-0.1,1.1-0.3
		c0.3-0.2,0.4-0.5,0.4-0.8c0-0.3-0.1-0.5-0.3-0.7c-0.2-0.2-0.5-0.3-1-0.5l-0.4-0.1c-0.6-0.2-1-0.4-1.3-0.7c-0.3-0.3-0.4-0.6-0.4-1.1
		c0-0.3,0.1-0.5,0.2-0.7c0.1-0.2,0.3-0.4,0.5-0.6c0.2-0.2,0.4-0.3,0.7-0.4c0.3-0.1,0.6-0.1,0.9-0.1c0.3,0,0.6,0,1,0.1
		s0.6,0.1,0.9,0.3L44.5,294.1z"/>
	<path class="st1" d="M52.3,296.3c0,0.6-0.1,1-0.2,1.5c-0.2,0.4-0.4,0.8-0.7,1.1c-0.3,0.3-0.6,0.5-1,0.7c-0.4,0.2-0.8,0.2-1.2,0.2
		c-0.4,0-0.8-0.1-1.2-0.2c-0.4-0.1-0.7-0.4-1-0.6c-0.3-0.3-0.5-0.6-0.6-1c-0.2-0.4-0.2-0.9-0.2-1.4c0-0.6,0.1-1,0.2-1.5
		c0.2-0.4,0.4-0.8,0.7-1.1c0.3-0.3,0.6-0.5,1-0.7c0.4-0.1,0.8-0.2,1.2-0.2c0.4,0,0.8,0.1,1.2,0.2c0.4,0.1,0.7,0.4,1,0.6
		c0.3,0.3,0.5,0.6,0.6,1C52.2,295.3,52.3,295.8,52.3,296.3z M51.3,296.4c0-0.5-0.1-0.9-0.2-1.2s-0.3-0.6-0.5-0.8
		c-0.2-0.2-0.4-0.4-0.7-0.5c-0.2-0.1-0.5-0.1-0.8-0.1c-0.3,0-0.5,0-0.8,0.1c-0.2,0.1-0.5,0.2-0.7,0.4c-0.2,0.2-0.3,0.5-0.5,0.8
		s-0.2,0.7-0.2,1.2s0.1,0.9,0.2,1.2s0.3,0.6,0.5,0.8c0.2,0.2,0.4,0.4,0.7,0.5s0.5,0.1,0.8,0.1s0.5,0,0.8-0.1
		c0.2-0.1,0.5-0.2,0.7-0.4c0.2-0.2,0.3-0.5,0.5-0.8C51.2,297.3,51.3,296.9,51.3,296.4z"/>
	<path class="st1" d="M56.3,289.7c0.3,0,0.5,0,0.8,0.1c0.3,0.1,0.5,0.2,0.8,0.3l-0.2,0.7c-0.2-0.1-0.4-0.2-0.6-0.2
		c-0.2-0.1-0.4-0.1-0.6-0.1c-0.5,0-0.8,0.1-1,0.4c-0.2,0.3-0.3,0.7-0.3,1.3v0.9h2.1v0.7h-2.1v5.8h-1v-5.8h-1.1v-0.7h1.1v-1.2
		c0-0.7,0.2-1.3,0.5-1.7C55.1,289.8,55.6,289.7,56.3,289.7z"/>
	<path class="st1" d="M61.7,293.8h-2.1v4.1c0,0.4,0.1,0.6,0.3,0.8c0.2,0.1,0.4,0.2,0.7,0.2c0.2,0,0.5,0,0.7-0.1s0.4-0.1,0.6-0.2
		l0.2,0.7c-0.2,0.1-0.4,0.1-0.7,0.2c-0.3,0.1-0.6,0.1-0.9,0.1c-1.2,0-1.8-0.5-1.8-1.6v-4.2h-1.1v-0.7h1.1V291h1v2.1h2.1V293.8z"/>
	<path class="st1" d="M62.7,293.1h1l1.1,4.1l0.3,1.7h0l0.4-1.7l1.2-4.1h1l1.2,4.1l0.4,1.7h0l0.4-1.7l1.1-4.1h1l-1.9,6.6h-1.1
		l-1.2-4.2l-0.4-1.7l-0.4,1.7l-1.2,4.2h-1.1L62.7,293.1z"/>
	<path class="st1" d="M73.1,293.7c0.4-0.2,0.8-0.4,1.2-0.5s0.8-0.2,1.2-0.2c0.3,0,0.6,0,0.9,0.1s0.5,0.2,0.7,0.4
		c0.2,0.2,0.4,0.4,0.5,0.7c0.1,0.3,0.2,0.7,0.2,1.1v4.3h-0.8l-0.2-0.8h0c-0.3,0.3-0.6,0.6-1,0.7s-0.8,0.2-1.2,0.2
		c-0.3,0-0.6,0-0.9-0.1c-0.3-0.1-0.5-0.2-0.7-0.4s-0.3-0.4-0.4-0.6c-0.1-0.2-0.2-0.5-0.2-0.8c0-0.3,0.1-0.6,0.2-0.9
		c0.1-0.3,0.3-0.5,0.6-0.7c0.3-0.2,0.6-0.3,0.9-0.4s0.8-0.1,1.2-0.1h1.3v-0.5c0-0.6-0.1-0.9-0.4-1.2c-0.3-0.2-0.6-0.3-1-0.3
		c-0.3,0-0.6,0-0.9,0.1c-0.3,0.1-0.7,0.2-1.1,0.5L73.1,293.7z M76.9,296.5l-1.1,0c-0.8,0-1.3,0.2-1.7,0.4c-0.3,0.3-0.5,0.6-0.5,0.9
		c0,0.4,0.1,0.7,0.4,0.9c0.3,0.2,0.6,0.3,1,0.3c0.3,0,0.7-0.1,1-0.2c0.3-0.2,0.6-0.4,0.9-0.8V296.5z"/>
	<path class="st1" d="M79.7,299.7v-6.6h0.7l0.2,1.3c0.2-0.4,0.4-0.8,0.8-1c0.4-0.3,0.8-0.4,1.3-0.4c0.2,0,0.4,0,0.6,0.1
		c0.2,0,0.3,0.1,0.4,0.1l-0.2,0.9c-0.1-0.1-0.2-0.1-0.4-0.1c-0.1,0-0.3-0.1-0.5-0.1c-0.3,0-0.5,0-0.8,0.1c-0.2,0.1-0.4,0.2-0.6,0.4
		c-0.2,0.2-0.3,0.4-0.4,0.7c-0.1,0.3-0.2,0.6-0.2,1v3.5H79.7z"/>
	<path class="st1" d="M89.8,296.4h-4.7v0.1c0,0.8,0.2,1.4,0.6,1.8c0.4,0.4,1,0.6,1.7,0.6c0.3,0,0.6,0,0.9-0.1
		c0.3-0.1,0.6-0.1,0.9-0.3l0.2,0.7c-0.3,0.1-0.6,0.2-0.9,0.3c-0.4,0.1-0.7,0.1-1.1,0.1c-0.5,0-0.9-0.1-1.3-0.2
		c-0.4-0.1-0.8-0.3-1.1-0.6s-0.5-0.6-0.7-1.1c-0.2-0.4-0.3-0.9-0.3-1.5c0-0.5,0.1-1,0.2-1.4c0.1-0.4,0.4-0.8,0.6-1.1
		c0.3-0.3,0.6-0.5,1-0.7c0.4-0.2,0.8-0.2,1.3-0.2c0.4,0,0.8,0.1,1.1,0.2c0.3,0.1,0.6,0.3,0.8,0.6c0.2,0.3,0.4,0.6,0.5,0.9
		s0.2,0.7,0.2,1.2V296.4z M88.8,295.7c0-0.3,0-0.5-0.1-0.7c-0.1-0.2-0.2-0.4-0.3-0.6c-0.1-0.2-0.3-0.3-0.5-0.4
		c-0.2-0.1-0.5-0.2-0.8-0.2c-0.5,0-1,0.2-1.3,0.5s-0.6,0.8-0.6,1.5L88.8,295.7z"/>
</g>
<polyline class="st2" points="111,44 65,44 65,187 "/>
<polyline class="st2" points="109,48 113,44 109,40 "/>
<rect x="32.2" y="114" class="st3" width="67" height="23"/>
<g class="st0">
	<path class="st4" d="M45,121c0.6,0,1.1,0.1,1.5,0.2c0.4,0.1,0.8,0.3,1.2,0.4l-0.4,1.4c-0.4-0.2-0.8-0.3-1.1-0.4
		c-0.4-0.1-0.7-0.1-1-0.1c-0.4,0-0.8,0.1-1,0.3c-0.2,0.2-0.4,0.4-0.4,0.7c0,0.3,0.1,0.5,0.3,0.7s0.6,0.3,1,0.5l0.8,0.3
		c0.7,0.2,1.2,0.6,1.6,1c0.4,0.4,0.6,1,0.6,1.6c0,0.4-0.1,0.7-0.2,1c-0.1,0.3-0.4,0.6-0.6,0.9c-0.3,0.2-0.6,0.4-1.1,0.6
		c-0.4,0.1-0.9,0.2-1.5,0.2c-1.1,0-2-0.2-2.9-0.6l0.4-1.4c0.4,0.2,0.8,0.3,1.2,0.5c0.4,0.1,0.8,0.2,1.2,0.2c0.5,0,0.9-0.1,1.1-0.3
		c0.3-0.2,0.4-0.4,0.4-0.8c0-0.1,0-0.2-0.1-0.3s-0.1-0.2-0.2-0.3c-0.1-0.1-0.3-0.2-0.5-0.3c-0.2-0.1-0.4-0.2-0.7-0.3l-0.7-0.3
		c-0.3-0.1-0.6-0.2-0.9-0.4c-0.3-0.1-0.5-0.3-0.7-0.5c-0.2-0.2-0.3-0.4-0.4-0.7c-0.1-0.3-0.2-0.6-0.2-0.9c0-0.4,0.1-0.7,0.2-1.1
		c0.1-0.3,0.3-0.6,0.6-0.8c0.3-0.2,0.6-0.4,1-0.5C44,121.1,44.5,121,45,121z"/>
	<path class="st4" d="M49.6,121.2h5.7v1.5h-3.8v2H55v1.5h-3.5v2.4h3.9v1.5h-5.8V121.2z"/>
	<path class="st4" d="M59.4,121.2h2l3.3,8.8h-2l-0.7-2h-3.1l-0.7,2h-2L59.4,121.2z M59.2,126.6h2.2l-0.4-1.2
		c-0.1-0.4-0.3-0.7-0.4-1.1c-0.1-0.4-0.2-0.7-0.3-1.1h0c-0.1,0.4-0.2,0.7-0.3,1.1c-0.1,0.4-0.2,0.7-0.4,1.1L59.2,126.6z"/>
	<path class="st4" d="M65.7,121.2h3.3c0.5,0,0.9,0.1,1.3,0.2c0.4,0.1,0.7,0.3,0.9,0.6s0.4,0.5,0.6,0.9c0.1,0.3,0.2,0.7,0.2,1.1
		c0,0.4-0.1,0.7-0.2,0.9c-0.1,0.3-0.2,0.5-0.4,0.7c-0.2,0.2-0.3,0.4-0.5,0.5c-0.2,0.1-0.4,0.2-0.6,0.3l2.2,3.6h-2.2l-1.7-3.2h-1v3.2
		h-1.9V121.2z M67.7,125.3h0.8c0.5,0,0.9-0.1,1.2-0.3c0.3-0.2,0.5-0.5,0.5-1c0-0.4-0.1-0.7-0.4-1c-0.3-0.2-0.6-0.3-1.1-0.3h-1V125.3
		z"/>
	<path class="st4" d="M78.1,128.7c0.4,0,0.8,0,1.1-0.1c0.3-0.1,0.6-0.2,0.8-0.3l0.4,1.4c-0.2,0.1-0.5,0.2-1,0.3s-0.9,0.2-1.5,0.2
		c-0.7,0-1.3-0.1-1.8-0.3s-1-0.5-1.4-0.9c-0.4-0.4-0.7-0.9-0.9-1.4s-0.3-1.2-0.3-1.9c0-0.7,0.1-1.3,0.3-1.9c0.2-0.6,0.5-1,0.9-1.4
		c0.4-0.4,0.9-0.7,1.4-0.9c0.6-0.2,1.2-0.3,1.9-0.3c0.6,0,1.1,0.1,1.5,0.2c0.4,0.1,0.7,0.2,0.9,0.4l-0.4,1.4
		c-0.2-0.1-0.5-0.2-0.8-0.3c-0.3-0.1-0.6-0.1-1-0.1c-0.4,0-0.7,0.1-1.1,0.2c-0.3,0.1-0.6,0.3-0.9,0.5c-0.3,0.2-0.5,0.6-0.6,1
		c-0.1,0.4-0.2,0.9-0.2,1.4c0,0.5,0.1,1,0.2,1.4c0.1,0.4,0.3,0.7,0.6,1c0.2,0.3,0.5,0.4,0.9,0.6C77.4,128.6,77.7,128.7,78.1,128.7z"
		/>
	<path class="st4" d="M81.7,130v-8.8h1.9v3.5H87v-3.5h1.9v8.8H87v-3.8h-3.3v3.8H81.7z"/>
</g>
<g>
	<path class="st4" d="M27,270c0.3,0,0.5,0.1,0.7,0.3c0.2,0.2,0.3,0.4,0.3,0.7c0,3.1,0,7.7,0,13.9c0,0.3-0.1,0.5-0.3,0.7
		c-0.2,0.2-0.4,0.3-0.7,0.3c-0.3,0-0.5-0.1-0.7-0.3c-0.2-0.2-0.3-0.4-0.3-0.7c0-1.2,0-2.9,0-5.2c0-1.9,0-4.8,0-8.6
		c0-0.3,0.1-0.5,0.3-0.7C26.5,270.1,26.7,270,27,270z"/>
	<path class="st4" d="M35.9,274c0.6,0,1.1,0.1,1.7,0.2c0.5,0.2,1,0.4,1.5,0.6c0.8,0.5,1.5,1.2,2,2.1c0.5,0.9,0.8,1.9,0.8,2.9
		c0,0.6-0.1,1.1-0.2,1.6c-0.2,0.5-0.4,1-0.6,1.5c-0.5,0.8-1.2,1.5-2.1,2c-0.9,0.5-1.9,0.8-2.9,0.8c-1.1,0-2-0.3-2.9-0.8
		c-0.9-0.5-1.6-1.2-2.1-2c-0.3-0.5-0.5-1-0.6-1.5c-0.2-0.5-0.2-1.1-0.2-1.6c0-1.1,0.3-2.1,0.8-2.9c0.5-0.9,1.2-1.6,2-2.1
		c0.5-0.3,1-0.5,1.5-0.6C34.8,274,35.3,274,35.9,274z M39.9,279.9c0-1.1-0.4-2-1.2-2.8s-1.7-1.2-2.8-1.2c-1.1,0-2,0.4-2.8,1.2
		s-1.2,1.7-1.2,2.8c0,1.1,0.4,2,1.2,2.8s1.7,1.2,2.8,1.2c1.1,0,2-0.4,2.8-1.2S39.9,281,39.9,279.9z"/>
	<path class="st4" d="M49.8,285.8c-1.1,0-2-0.3-2.9-0.8c-0.9-0.5-1.6-1.2-2.1-2c-0.3-0.5-0.5-1-0.6-1.5c-0.2-0.5-0.2-1.1-0.2-1.6
		c0-1.1,0.3-2.1,0.8-2.9c0.5-0.9,1.2-1.6,2-2.1c0.5-0.3,1-0.5,1.5-0.6c0.5-0.2,1.1-0.2,1.6-0.2c1,0,1.9,0.2,2.8,0.7
		c0.9,0.5,1.6,1.1,2.1,1.9c0.1,0.2,0.2,0.4,0.2,0.6c0,0.1,0,0.1,0,0.2c0,0.3-0.2,0.5-0.4,0.6c-0.2,0.2-0.5,0.2-0.8,0.2
		c-0.3-0.1-0.5-0.2-0.6-0.4c-0.4-0.5-0.8-1-1.4-1.3c-0.6-0.3-1.2-0.5-1.9-0.5c-1.1,0-2,0.4-2.8,1.2s-1.2,1.7-1.2,2.8
		c0,1.1,0.4,2,1.2,2.8s1.7,1.2,2.8,1.2c0.7,0,1.3-0.2,1.9-0.5c0.6-0.3,1.1-0.7,1.4-1.3c0.1-0.2,0.4-0.4,0.6-0.4
		c0.3-0.1,0.5,0,0.8,0.2c0.2,0.1,0.4,0.3,0.4,0.6c0.1,0.3,0,0.5-0.2,0.8c-0.6,0.8-1.3,1.5-2.1,1.9C51.7,285.6,50.8,285.8,49.8,285.8
		z"/>
	<path class="st4" d="M62.8,285.8c-1.1,0-2-0.3-2.9-0.8c-0.9-0.5-1.6-1.2-2.1-2c-0.3-0.5-0.5-1-0.6-1.5c-0.2-0.5-0.2-1.1-0.2-1.6
		c0-0.6,0.1-1.1,0.2-1.7c0.2-0.5,0.4-1,0.6-1.5c0.5-0.8,1.2-1.5,2.1-2c0.9-0.5,1.9-0.8,2.9-0.8c0.8,0,1.5,0.1,2.2,0.4
		c0.7,0.3,1.3,0.6,1.8,1.1c0-0.1,0-0.3,0-0.5c0-0.3,0.1-0.5,0.3-0.7c0.2-0.2,0.4-0.3,0.7-0.3c0.3,0,0.5,0.1,0.7,0.3
		c0.2,0.2,0.3,0.4,0.3,0.7c0,2.2,0,5.5,0,9.9c0,0.3-0.1,0.5-0.3,0.7c-0.2,0.2-0.4,0.3-0.7,0.3c-0.3,0-0.5-0.1-0.7-0.3
		c-0.2-0.2-0.3-0.4-0.3-0.7c0-0.1,0-0.3,0-0.5c-0.5,0.5-1.1,0.8-1.8,1.1C64.3,285.7,63.6,285.8,62.8,285.8z M58.9,279.9
		c0,1.1,0.4,2,1.2,2.8s1.7,1.2,2.8,1.2c1.1,0,2-0.4,2.8-1.2s1.2-1.7,1.2-2.8c0-1.1-0.4-2-1.2-2.8s-1.7-1.2-2.8-1.2
		c-1.1,0-2,0.4-2.8,1.2S58.9,278.8,58.9,279.9z"/>
	<path class="st4" d="M71.8,271c0-0.3,0.1-0.5,0.3-0.7c0.2-0.2,0.4-0.3,0.7-0.3c0.3,0,0.5,0.1,0.7,0.3c0.2,0.2,0.3,0.4,0.3,0.7
		c0,0.7,0,1.6,0,3c0.7,0,1.6,0,3,0c0.3,0,0.5,0.1,0.7,0.3c0.2,0.2,0.3,0.4,0.3,0.7c0,0.3-0.1,0.5-0.3,0.7c-0.2,0.2-0.4,0.3-0.7,0.3
		c-0.7,0-1.6,0-3,0c0,1,0,2.6,0,4.7c0,0.9,0.3,1.7,0.9,2.3c0.6,0.6,1.3,0.9,2.1,0.9c0.4,0,1.1,0,1.9,0c0.3,0,0.5,0.1,0.7,0.3
		c0.2,0.2,0.3,0.4,0.3,0.7c0,0.3-0.1,0.5-0.3,0.7c-0.2,0.2-0.4,0.3-0.7,0.3c-0.3,0-0.6,0-1.2,0c-0.2,0-0.4,0-0.8,0
		c-0.5,0-0.9-0.1-1.4-0.2c-0.4-0.1-0.9-0.3-1.2-0.6c-0.7-0.5-1.3-1.1-1.7-1.9c-0.4-0.8-0.6-1.6-0.6-2.6c0-0.8,0-2,0-3.6
		C71.8,275.7,71.8,273.7,71.8,271z"/>
	<path class="st4" d="M86.6,274c0.6,0,1.1,0.1,1.7,0.2c0.5,0.2,1,0.4,1.5,0.6c0.8,0.5,1.5,1.2,2,2.1c0.5,0.9,0.8,1.9,0.8,2.9
		c0,0.6-0.1,1.1-0.2,1.6c-0.2,0.5-0.4,1-0.6,1.5c-0.5,0.8-1.2,1.5-2.1,2c-0.9,0.5-1.9,0.8-2.9,0.8c-1.1,0-2-0.3-2.9-0.8
		c-0.9-0.5-1.6-1.2-2.1-2c-0.3-0.5-0.5-1-0.6-1.5c-0.2-0.5-0.2-1.1-0.2-1.6c0-1.1,0.3-2.1,0.8-2.9c0.5-0.9,1.2-1.6,2-2.1
		c0.5-0.3,1-0.5,1.5-0.6C85.5,274,86,274,86.6,274z M90.6,279.9c0-1.1-0.4-2-1.2-2.8s-1.7-1.2-2.8-1.2c-1.1,0-2,0.4-2.8,1.2
		s-1.2,1.7-1.2,2.8c0,1.1,0.4,2,1.2,2.8s1.7,1.2,2.8,1.2c1.1,0,2-0.4,2.8-1.2S90.6,281,90.6,279.9z"/>
	<path class="st4" d="M94.5,284.8c0-1.3,0-3.2,0-5.8c0-0.9,0.2-1.8,0.6-2.5c0.4-0.8,1-1.4,1.7-1.8c0.4-0.2,0.8-0.4,1.2-0.6
		c0.4-0.1,0.9-0.2,1.4-0.2c0.9,0,1.7,0.2,2.4,0.7c0.7,0.4,1.3,1,1.8,1.7c0.2,0.4,0.4,0.8,0.6,1.2c0.1,0.5,0.2,0.9,0.2,1.4
		c0,0.3-0.1,0.5-0.3,0.7c-0.2,0.2-0.4,0.3-0.7,0.3c-0.3,0-0.5-0.1-0.7-0.3c-0.2-0.2-0.3-0.4-0.3-0.7c0-0.9-0.3-1.6-0.9-2.2
		c-0.6-0.6-1.3-0.9-2.1-0.9c-0.8,0-1.5,0.3-2.1,0.9c-0.6,0.6-0.9,1.4-0.9,2.2c0,1.3,0,3.2,0,5.8c0,0.3-0.1,0.5-0.3,0.7
		c-0.2,0.2-0.4,0.3-0.7,0.3c-0.3,0-0.5-0.1-0.7-0.3C94.6,285.4,94.5,285.1,94.5,284.8z"/>
</g>
<g class="st0">
	<path class="st1" d="M211.7,293.1h1l1.1,4.1l0.3,1.7h0l0.4-1.7l1.2-4.1h1l1.2,4.1l0.4,1.7h0l0.4-1.7l1.1-4.1h1l-1.9,6.6h-1.1
		l-1.2-4.2l-0.4-1.7l-0.4,1.7l-1.2,4.2h-1.1L211.7,293.1z"/>
	<path class="st1" d="M227.4,296.4h-4.7v0.1c0,0.8,0.2,1.4,0.6,1.8c0.4,0.4,1,0.6,1.7,0.6c0.3,0,0.6,0,0.9-0.1
		c0.3-0.1,0.6-0.1,0.9-0.3l0.2,0.7c-0.3,0.1-0.6,0.2-0.9,0.3c-0.4,0.1-0.7,0.1-1.1,0.1c-0.5,0-0.9-0.1-1.3-0.2
		c-0.4-0.1-0.8-0.3-1.1-0.6s-0.5-0.6-0.7-1.1c-0.2-0.4-0.3-0.9-0.3-1.5c0-0.5,0.1-1,0.2-1.4c0.1-0.4,0.4-0.8,0.6-1.1
		c0.3-0.3,0.6-0.5,1-0.7c0.4-0.2,0.8-0.2,1.3-0.2c0.4,0,0.8,0.1,1.1,0.2c0.3,0.1,0.6,0.3,0.8,0.6s0.4,0.6,0.5,0.9s0.2,0.7,0.2,1.2
		V296.4z M226.3,295.7c0-0.3,0-0.5-0.1-0.7c-0.1-0.2-0.2-0.4-0.3-0.6c-0.1-0.2-0.3-0.3-0.5-0.4s-0.5-0.2-0.8-0.2
		c-0.5,0-1,0.2-1.3,0.5s-0.6,0.8-0.6,1.5L226.3,295.7z"/>
	<path class="st1" d="M234.8,296.4c0,0.5-0.1,1-0.2,1.4c-0.2,0.4-0.4,0.8-0.6,1.1c-0.3,0.3-0.6,0.5-0.9,0.7
		c-0.4,0.2-0.7,0.2-1.1,0.2c-0.4,0-0.8-0.1-1.1-0.2c-0.3-0.1-0.6-0.3-0.9-0.6h0l-0.1,0.6h-0.7v-9.9h1v4.2c0.2-0.3,0.5-0.5,0.9-0.7
		c0.4-0.2,0.7-0.3,1.2-0.3c0.4,0,0.8,0.1,1.1,0.2c0.3,0.1,0.6,0.4,0.9,0.7c0.2,0.3,0.4,0.6,0.6,1.1
		C234.7,295.4,234.8,295.8,234.8,296.4z M233.7,296.4c0-0.8-0.2-1.5-0.5-1.9c-0.4-0.5-0.8-0.7-1.4-0.7c-0.4,0-0.7,0.1-1,0.3
		s-0.6,0.4-0.8,0.7v3.5c0.2,0.2,0.4,0.4,0.7,0.5c0.3,0.1,0.6,0.2,0.9,0.2c0.3,0,0.6-0.1,0.8-0.2c0.3-0.1,0.5-0.3,0.7-0.5
		c0.2-0.2,0.4-0.5,0.5-0.8C233.7,297.2,233.7,296.8,233.7,296.4z"/>
	<path class="st1" d="M243.7,289.7h1v9.9h-0.8l-0.1-0.7h0c-0.2,0.3-0.5,0.5-0.8,0.6c-0.3,0.1-0.7,0.2-1.1,0.2c-0.4,0-0.7-0.1-1-0.2
		c-0.3-0.1-0.6-0.3-0.9-0.6c-0.3-0.3-0.5-0.6-0.7-1.1c-0.2-0.4-0.2-0.9-0.2-1.5c0-0.5,0.1-1,0.2-1.4c0.1-0.4,0.3-0.8,0.6-1.1
		s0.6-0.5,0.9-0.7c0.4-0.2,0.8-0.2,1.3-0.2c0.3,0,0.7,0.1,1,0.2s0.6,0.3,0.8,0.5V289.7z M243.7,294.5c-0.2-0.2-0.4-0.4-0.7-0.6
		c-0.3-0.1-0.6-0.2-0.9-0.2c-0.3,0-0.6,0-0.8,0.1c-0.3,0.1-0.5,0.2-0.7,0.4c-0.2,0.2-0.4,0.5-0.5,0.8c-0.1,0.3-0.2,0.7-0.2,1.2
		c0,0.5,0.1,0.9,0.2,1.2c0.1,0.3,0.3,0.6,0.5,0.8s0.4,0.4,0.7,0.5c0.2,0.1,0.5,0.1,0.8,0.1c0.4,0,0.7-0.1,1-0.2s0.5-0.4,0.7-0.6
		V294.5z"/>
	<path class="st1" d="M246.6,293.7c0.4-0.2,0.8-0.4,1.2-0.5c0.4-0.1,0.8-0.2,1.2-0.2c0.3,0,0.6,0,0.9,0.1c0.3,0.1,0.5,0.2,0.7,0.4
		c0.2,0.2,0.4,0.4,0.5,0.7c0.1,0.3,0.2,0.7,0.2,1.1v4.3h-0.8l-0.2-0.8h0c-0.3,0.3-0.6,0.6-1,0.7s-0.8,0.2-1.2,0.2
		c-0.3,0-0.6,0-0.9-0.1s-0.5-0.2-0.7-0.4s-0.3-0.4-0.4-0.6c-0.1-0.2-0.2-0.5-0.2-0.8c0-0.3,0.1-0.6,0.2-0.9c0.1-0.3,0.3-0.5,0.6-0.7
		c0.3-0.2,0.6-0.3,0.9-0.4s0.8-0.1,1.2-0.1h1.3v-0.5c0-0.6-0.1-0.9-0.4-1.2c-0.3-0.2-0.6-0.3-1-0.3c-0.3,0-0.6,0-0.9,0.1
		c-0.3,0.1-0.7,0.2-1.1,0.5L246.6,293.7z M250.4,296.5l-1.1,0c-0.8,0-1.3,0.2-1.7,0.4s-0.5,0.6-0.5,0.9c0,0.4,0.1,0.7,0.4,0.9
		c0.3,0.2,0.6,0.3,1,0.3c0.3,0,0.7-0.1,1-0.2c0.3-0.2,0.6-0.4,0.9-0.8V296.5z"/>
	<path class="st1" d="M256.9,294.1c-0.3-0.1-0.5-0.2-0.8-0.3c-0.2-0.1-0.5-0.1-0.8-0.1c-0.5,0-0.8,0.1-1.1,0.3s-0.4,0.4-0.4,0.7
		c0,0.3,0.1,0.5,0.3,0.6c0.2,0.2,0.5,0.3,1,0.5l0.4,0.1c0.6,0.2,1,0.4,1.3,0.7c0.3,0.3,0.5,0.7,0.5,1.2c0,0.6-0.2,1-0.6,1.4
		s-1,0.5-1.8,0.5c-0.4,0-0.8,0-1.2-0.1c-0.4-0.1-0.7-0.2-0.9-0.3l0.3-0.8c0.3,0.1,0.5,0.2,0.8,0.3c0.3,0.1,0.6,0.1,1,0.1
		c0.5,0,0.8-0.1,1.1-0.3s0.4-0.5,0.4-0.8c0-0.3-0.1-0.5-0.3-0.7s-0.5-0.3-1-0.5l-0.4-0.1c-0.6-0.2-1-0.4-1.3-0.7
		c-0.3-0.3-0.4-0.6-0.4-1.1c0-0.3,0.1-0.5,0.2-0.7s0.3-0.4,0.5-0.6c0.2-0.2,0.4-0.3,0.7-0.4c0.3-0.1,0.6-0.1,0.9-0.1
		c0.3,0,0.6,0,1,0.1s0.6,0.1,0.9,0.3L256.9,294.1z"/>
	<path class="st1" d="M259.9,299.7h-1v-9.9h1v4.2c0.3-0.3,0.6-0.5,1-0.7c0.4-0.2,0.8-0.3,1.2-0.3c0.4,0,0.7,0.1,1,0.2
		c0.3,0.1,0.5,0.3,0.7,0.4c0.2,0.2,0.3,0.4,0.4,0.7s0.1,0.5,0.1,0.8v4.5h-1v-4.3c0-0.6-0.1-1-0.4-1.2c-0.2-0.2-0.6-0.4-1-0.4
		c-0.3,0-0.7,0.1-1,0.3c-0.3,0.2-0.7,0.4-1,0.7V299.7z"/>
	<path class="st1" d="M272.2,296.4c0,0.5-0.1,1-0.2,1.4c-0.2,0.4-0.4,0.8-0.6,1.1s-0.6,0.5-0.9,0.7c-0.4,0.2-0.7,0.2-1.1,0.2
		c-0.4,0-0.8-0.1-1.1-0.2s-0.6-0.3-0.9-0.6h0l-0.1,0.6h-0.7v-9.9h1v4.2c0.2-0.3,0.5-0.5,0.9-0.7s0.7-0.3,1.2-0.3
		c0.4,0,0.8,0.1,1.1,0.2c0.3,0.1,0.6,0.4,0.9,0.7c0.2,0.3,0.4,0.6,0.6,1.1C272.2,295.4,272.2,295.8,272.2,296.4z M271.2,296.4
		c0-0.8-0.2-1.5-0.5-1.9c-0.4-0.5-0.8-0.7-1.4-0.7c-0.4,0-0.7,0.1-1,0.3s-0.6,0.4-0.8,0.7v3.5c0.2,0.2,0.4,0.4,0.7,0.5
		c0.3,0.1,0.6,0.2,0.9,0.2c0.3,0,0.6-0.1,0.8-0.2c0.3-0.1,0.5-0.3,0.7-0.5c0.2-0.2,0.4-0.5,0.5-0.8S271.2,296.8,271.2,296.4z"/>
	<path class="st1" d="M279.5,296.3c0,0.6-0.1,1-0.2,1.5c-0.2,0.4-0.4,0.8-0.7,1.1s-0.6,0.5-1,0.7c-0.4,0.2-0.8,0.2-1.2,0.2
		c-0.4,0-0.8-0.1-1.2-0.2s-0.7-0.4-1-0.6c-0.3-0.3-0.5-0.6-0.6-1c-0.2-0.4-0.2-0.9-0.2-1.4c0-0.6,0.1-1,0.2-1.5
		c0.2-0.4,0.4-0.8,0.7-1.1c0.3-0.3,0.6-0.5,1-0.7c0.4-0.1,0.8-0.2,1.2-0.2c0.4,0,0.8,0.1,1.2,0.2c0.4,0.1,0.7,0.4,1,0.6
		c0.3,0.3,0.5,0.6,0.6,1C279.4,295.3,279.5,295.8,279.5,296.3z M278.5,296.4c0-0.5-0.1-0.9-0.2-1.2c-0.1-0.3-0.3-0.6-0.5-0.8
		c-0.2-0.2-0.4-0.4-0.7-0.5s-0.5-0.1-0.8-0.1c-0.3,0-0.5,0-0.8,0.1s-0.5,0.2-0.7,0.4c-0.2,0.2-0.3,0.5-0.5,0.8
		c-0.1,0.3-0.2,0.7-0.2,1.2s0.1,0.9,0.2,1.2c0.1,0.3,0.3,0.6,0.5,0.8c0.2,0.2,0.4,0.4,0.7,0.5s0.5,0.1,0.8,0.1c0.3,0,0.5,0,0.8-0.1
		c0.2-0.1,0.5-0.2,0.7-0.4s0.3-0.5,0.5-0.8S278.5,296.9,278.5,296.4z"/>
	<path class="st1" d="M281,293.7c0.4-0.2,0.8-0.4,1.2-0.5c0.4-0.1,0.8-0.2,1.2-0.2c0.3,0,0.6,0,0.9,0.1c0.3,0.1,0.5,0.2,0.7,0.4
		c0.2,0.2,0.4,0.4,0.5,0.7c0.1,0.3,0.2,0.7,0.2,1.1v4.3H285l-0.2-0.8h0c-0.3,0.3-0.6,0.6-1,0.7s-0.8,0.2-1.2,0.2
		c-0.3,0-0.6,0-0.9-0.1s-0.5-0.2-0.7-0.4s-0.3-0.4-0.4-0.6c-0.1-0.2-0.2-0.5-0.2-0.8c0-0.3,0.1-0.6,0.2-0.9c0.1-0.3,0.3-0.5,0.6-0.7
		c0.3-0.2,0.6-0.3,0.9-0.4s0.8-0.1,1.2-0.1h1.3v-0.5c0-0.6-0.1-0.9-0.4-1.2c-0.3-0.2-0.6-0.3-1-0.3c-0.3,0-0.6,0-0.9,0.1
		c-0.3,0.1-0.7,0.2-1.1,0.5L281,293.7z M284.8,296.5l-1.1,0c-0.8,0-1.3,0.2-1.7,0.4s-0.5,0.6-0.5,0.9c0,0.4,0.1,0.7,0.4,0.9
		c0.3,0.2,0.6,0.3,1,0.3c0.3,0,0.7-0.1,1-0.2c0.3-0.2,0.6-0.4,0.9-0.8V296.5z"/>
	<path class="st1" d="M287.7,299.7v-6.6h0.7l0.2,1.3c0.2-0.4,0.4-0.8,0.8-1c0.4-0.3,0.8-0.4,1.3-0.4c0.2,0,0.4,0,0.6,0.1
		c0.2,0,0.3,0.1,0.4,0.1l-0.2,0.9c-0.1-0.1-0.2-0.1-0.4-0.1c-0.1,0-0.3-0.1-0.5-0.1c-0.3,0-0.5,0-0.8,0.1c-0.2,0.1-0.4,0.2-0.6,0.4
		c-0.2,0.2-0.3,0.4-0.4,0.7c-0.1,0.3-0.2,0.6-0.2,1v3.5H287.7z"/>
	<path class="st1" d="M296.8,289.7h1v9.9H297l-0.1-0.7h0c-0.2,0.3-0.5,0.5-0.8,0.6c-0.3,0.1-0.7,0.2-1.1,0.2c-0.4,0-0.7-0.1-1-0.2
		c-0.3-0.1-0.6-0.3-0.9-0.6c-0.3-0.3-0.5-0.6-0.7-1.1c-0.2-0.4-0.2-0.9-0.2-1.5c0-0.5,0.1-1,0.2-1.4c0.1-0.4,0.3-0.8,0.6-1.1
		s0.6-0.5,0.9-0.7c0.4-0.2,0.8-0.2,1.3-0.2c0.3,0,0.7,0.1,1,0.2s0.6,0.3,0.8,0.5V289.7z M296.8,294.5c-0.2-0.2-0.4-0.4-0.7-0.6
		c-0.3-0.1-0.6-0.2-0.9-0.2c-0.3,0-0.6,0-0.8,0.1c-0.3,0.1-0.5,0.2-0.7,0.4c-0.2,0.2-0.4,0.5-0.5,0.8c-0.1,0.3-0.2,0.7-0.2,1.2
		c0,0.5,0.1,0.9,0.2,1.2c0.1,0.3,0.3,0.6,0.5,0.8s0.4,0.4,0.7,0.5c0.2,0.1,0.5,0.1,0.8,0.1c0.4,0,0.7-0.1,1-0.2s0.5-0.4,0.7-0.6
		V294.5z"/>
</g>
<g>
	<path class="st4" d="M202,284.8c0-1.4,0-3.4,0-6.2c0-1.3,0.5-2.4,1.5-3.3c1-0.9,2.1-1.4,3.5-1.4c0.8,0,1.6,0.2,2.3,0.5
		s1.3,0.8,1.7,1.4c0.4-0.6,1-1,1.7-1.4s1.4-0.5,2.3-0.5c1.4,0,2.5,0.5,3.5,1.4c1,0.9,1.4,2,1.4,3.3c0,1.4,0,3.4,0,6.2
		c0,0.3-0.1,0.5-0.3,0.7c-0.2,0.2-0.4,0.3-0.7,0.3c-0.3,0-0.5-0.1-0.7-0.3c-0.2-0.2-0.3-0.4-0.3-0.7c0-1.4,0-3.4,0-6.2
		c0-0.7-0.3-1.4-0.9-1.9c-0.6-0.5-1.3-0.8-2.1-0.8s-1.5,0.3-2.1,0.8c-0.6,0.5-0.9,1.2-0.9,1.9c0,1.4,0,3.4,0,6.2
		c0,0.3-0.1,0.5-0.3,0.7c-0.2,0.2-0.4,0.3-0.7,0.3c-0.3,0-0.5-0.1-0.7-0.3c-0.2-0.2-0.3-0.4-0.3-0.7c0-1.4,0-3.4,0-6.2
		c0-0.7-0.3-1.4-0.9-1.9c-0.6-0.5-1.3-0.8-2.1-0.8c-0.8,0-1.5,0.3-2.1,0.8c-0.6,0.5-0.9,1.2-0.9,1.9c0,1.4,0,3.4,0,6.2
		c0,0.3-0.1,0.5-0.3,0.7c-0.2,0.2-0.4,0.3-0.7,0.3c-0.3,0-0.5-0.1-0.7-0.3C202.1,285.3,202,285.1,202,284.8z"/>
	<path class="st4" d="M222.9,271L222.9,271c0-0.3,0.1-0.5,0.3-0.7c0.2-0.2,0.4-0.3,0.7-0.3c0.3,0,0.5,0.1,0.7,0.3
		c0.2,0.2,0.3,0.4,0.3,0.7v0c0,0.3-0.1,0.5-0.3,0.7c-0.2,0.2-0.4,0.3-0.7,0.3c-0.3,0-0.5-0.1-0.7-0.3
		C223,271.5,222.9,271.3,222.9,271z M222.9,284.8c0-0.8,0-2.1,0-3.7c0-1.4,0-3.4,0-6.2c0-0.3,0.1-0.5,0.3-0.7
		c0.2-0.2,0.4-0.3,0.7-0.3c0.3,0,0.5,0.1,0.7,0.3c0.2,0.2,0.3,0.4,0.3,0.7c0,2.2,0,5.5,0,9.9c0,0.3-0.1,0.5-0.3,0.7
		c-0.2,0.2-0.4,0.3-0.7,0.3c-0.3,0-0.5-0.1-0.7-0.3C223,285.4,222.9,285.1,222.9,284.8z"/>
	<path class="st4" d="M235.9,284.8c0-1.3,0-3.2,0-5.8c0-0.9-0.3-1.6-0.9-2.2c-0.6-0.6-1.3-0.9-2.1-0.9c-0.8,0-1.5,0.3-2.1,0.9
		c-0.6,0.6-0.9,1.4-0.9,2.2c0,1.3,0,3.2,0,5.8c0,0.3-0.1,0.5-0.3,0.7c-0.2,0.2-0.4,0.3-0.7,0.3s-0.5-0.1-0.7-0.3
		c-0.2-0.2-0.3-0.4-0.3-0.7c0-1.3,0-3.2,0-5.8c0-0.9,0.2-1.8,0.6-2.5c0.4-0.8,1-1.4,1.7-1.8c0.4-0.2,0.8-0.4,1.2-0.6
		c0.4-0.1,0.9-0.2,1.4-0.2c0.9,0,1.7,0.2,2.4,0.7c0.7,0.4,1.3,1,1.8,1.7c0.2,0.4,0.4,0.8,0.6,1.2c0.1,0.5,0.2,0.9,0.2,1.4
		c0,1.3,0,3.2,0,5.8c0,0.3-0.1,0.5-0.3,0.7c-0.2,0.2-0.4,0.3-0.7,0.3s-0.5-0.1-0.7-0.3C236,285.4,235.9,285.1,235.9,284.8z"/>
	<path class="st4" d="M245.8,285.8c-1.1,0-2-0.3-2.9-0.8s-1.6-1.2-2.1-2c-0.3-0.5-0.5-1-0.6-1.5c-0.2-0.5-0.2-1.1-0.2-1.6
		c0-1.1,0.3-2.1,0.8-2.9c0.5-0.9,1.2-1.6,2-2.1c0.5-0.3,1-0.5,1.5-0.6c0.5-0.2,1.1-0.2,1.6-0.2c1.5,0,2.9,0.5,4,1.5s1.8,2.3,1.9,3.9
		v0v0c0,0.1,0,0.2,0,0.2c0,0.1,0,0.2,0,0.3c0,0.3-0.1,0.5-0.3,0.7c-0.2,0.2-0.4,0.3-0.7,0.3c-1.9,0-4.9,0-8.8,0
		c0.2,0.9,0.7,1.6,1.4,2.1s1.5,0.8,2.4,0.8c0.6,0,1.1-0.1,1.6-0.3c0.5-0.2,1-0.6,1.3-1c0.2-0.2,0.4-0.3,0.7-0.3
		c0.3,0,0.5,0.1,0.7,0.2c0.2,0.2,0.3,0.4,0.3,0.7c0,0.3-0.1,0.5-0.3,0.7c-0.6,0.6-1.2,1.1-2,1.5
		C247.5,285.7,246.6,285.8,245.8,285.8z M242,278.9c1.7,0,4.3,0,7.7,0c-0.2-0.9-0.7-1.6-1.4-2.1s-1.5-0.8-2.4-0.8
		c-0.9,0-1.7,0.3-2.4,0.8C242.7,277.3,242.2,278,242,278.9z"/>
	<path class="st4" d="M253.7,284.8c0-1.3,0-3.2,0-5.8c0-0.9,0.2-1.8,0.6-2.5c0.4-0.8,1-1.4,1.7-1.8c0.4-0.2,0.8-0.4,1.2-0.6
		c0.4-0.1,0.9-0.2,1.4-0.2c0.9,0,1.7,0.2,2.4,0.7c0.7,0.4,1.3,1,1.8,1.7c0.2,0.4,0.4,0.8,0.6,1.2c0.1,0.5,0.2,0.9,0.2,1.4
		c0,0.3-0.1,0.5-0.3,0.7c-0.2,0.2-0.4,0.3-0.7,0.3s-0.5-0.1-0.7-0.3c-0.2-0.2-0.3-0.4-0.3-0.7c0-0.9-0.3-1.6-0.9-2.2
		c-0.6-0.6-1.3-0.9-2.1-0.9c-0.8,0-1.5,0.3-2.1,0.9c-0.6,0.6-0.9,1.4-0.9,2.2c0,1.3,0,3.2,0,5.8c0,0.3-0.1,0.5-0.3,0.7
		c-0.2,0.2-0.4,0.3-0.7,0.3s-0.5-0.1-0.7-0.3C253.8,285.4,253.7,285.1,253.7,284.8z"/>
	<path class="st4" d="M270.1,273.9c1,0,1.8,0.2,2.6,0.5c0.7,0.3,1.3,0.8,1.7,1.4c0.1,0.2,0.2,0.4,0.2,0.5c0,0.1,0,0.1,0,0.2
		c-0.1,0.3-0.2,0.5-0.4,0.6c-0.2,0.1-0.5,0.2-0.7,0.2c-0.3-0.1-0.5-0.2-0.6-0.4c-0.2-0.3-0.6-0.6-1-0.8s-1-0.3-1.6-0.3
		c-0.3,0-0.5,0-0.8,0.1c-0.3,0.1-0.5,0.2-0.7,0.3c-0.3,0.2-0.5,0.4-0.6,0.6c-0.1,0.2-0.1,0.4-0.1,0.5c0,0.2,0.1,0.5,0.3,0.6
		c0.2,0.2,0.4,0.3,0.6,0.4c0.7,0.2,1.7,0.5,3.1,1c0.6,0.2,1.2,0.6,1.6,1.1c0.4,0.5,0.7,1.1,0.7,1.7c0.1,0.6,0,1.2-0.3,1.8
		c-0.3,0.5-0.7,1-1.3,1.3c-0.4,0.2-0.8,0.4-1.2,0.5c-0.4,0.1-0.9,0.2-1.3,0.2c-1,0-1.8-0.2-2.6-0.5c-0.7-0.3-1.3-0.8-1.7-1.4
		c-0.1-0.2-0.2-0.4-0.2-0.5c0-0.1,0-0.1,0-0.2c0-0.3,0.2-0.5,0.4-0.6c0.2-0.1,0.5-0.2,0.8-0.2c0.3,0.1,0.5,0.2,0.6,0.4
		c0.2,0.3,0.6,0.6,1,0.8s1,0.3,1.6,0.3c0.3,0,0.6,0,0.8-0.1c0.3-0.1,0.5-0.2,0.8-0.3c0.3-0.2,0.5-0.4,0.6-0.6
		c0.1-0.2,0.1-0.4,0.1-0.5c0-0.2-0.1-0.4-0.2-0.6c-0.1-0.2-0.4-0.4-0.7-0.5c-0.7-0.2-1.7-0.5-3.1-1c-0.7-0.2-1.2-0.6-1.6-1.1
		c-0.4-0.5-0.7-1.1-0.7-1.7s0.1-1.2,0.4-1.8c0.3-0.5,0.8-1,1.4-1.3c0.4-0.2,0.8-0.3,1.2-0.4C269.2,274,269.7,273.9,270.1,273.9z"/>
	<path class="st4" d="M276.9,271c0-0.3,0.1-0.5,0.3-0.7c0.2-0.2,0.4-0.3,0.7-0.3s0.5,0.1,0.7,0.3c0.2,0.2,0.3,0.4,0.3,0.7
		c0,0.7,0,1.6,0,3c0.7,0,1.6,0,3,0c0.3,0,0.5,0.1,0.7,0.3c0.2,0.2,0.3,0.4,0.3,0.7c0,0.3-0.1,0.5-0.3,0.7c-0.2,0.2-0.4,0.3-0.7,0.3
		c-0.7,0-1.6,0-3,0c0,1,0,2.6,0,4.7c0,0.9,0.3,1.7,0.9,2.3c0.6,0.6,1.3,0.9,2.1,0.9c0.4,0,1.1,0,1.9,0c0.3,0,0.5,0.1,0.7,0.3
		c0.2,0.2,0.3,0.4,0.3,0.7c0,0.3-0.1,0.5-0.3,0.7c-0.2,0.2-0.4,0.3-0.7,0.3c-0.3,0-0.6,0-1.2,0c-0.2,0-0.4,0-0.8,0
		c-0.5,0-0.9-0.1-1.4-0.2c-0.4-0.1-0.9-0.3-1.2-0.6c-0.7-0.5-1.3-1.1-1.7-1.9c-0.4-0.8-0.6-1.6-0.6-2.6c0-0.8,0-2,0-3.6
		C276.9,275.7,276.9,273.7,276.9,271z"/>
	<path class="st4" d="M291.7,285.8c-1.1,0-2-0.3-2.9-0.8s-1.6-1.2-2.1-2c-0.3-0.5-0.5-1-0.6-1.5c-0.2-0.5-0.2-1.1-0.2-1.6
		c0-0.6,0.1-1.1,0.2-1.7c0.2-0.5,0.4-1,0.6-1.5c0.5-0.8,1.2-1.5,2.1-2s1.9-0.8,2.9-0.8c0.8,0,1.5,0.1,2.2,0.4
		c0.7,0.3,1.3,0.6,1.8,1.1c0-0.1,0-0.3,0-0.5c0-0.3,0.1-0.5,0.3-0.7c0.2-0.2,0.4-0.3,0.7-0.3s0.5,0.1,0.7,0.3
		c0.2,0.2,0.3,0.4,0.3,0.7c0,2.2,0,5.5,0,9.9c0,0.3-0.1,0.5-0.3,0.7c-0.2,0.2-0.4,0.3-0.7,0.3s-0.5-0.1-0.7-0.3
		c-0.2-0.2-0.3-0.4-0.3-0.7c0-0.1,0-0.3,0-0.5c-0.5,0.5-1.1,0.8-1.8,1.1C293.2,285.7,292.4,285.8,291.7,285.8z M287.7,279.9
		c0,1.1,0.4,2,1.2,2.8s1.7,1.2,2.8,1.2c1.1,0,2-0.4,2.8-1.2s1.2-1.7,1.2-2.8c0-1.1-0.4-2-1.2-2.8s-1.7-1.2-2.8-1.2
		c-1.1,0-2,0.4-2.8,1.2S287.7,278.8,287.7,279.9z"/>
	<path class="st4" d="M300.7,271c0-0.3,0.1-0.5,0.3-0.7c0.2-0.2,0.4-0.3,0.7-0.3s0.5,0.1,0.7,0.3c0.2,0.2,0.3,0.4,0.3,0.7
		c0,0.7,0,1.6,0,3c0.7,0,1.6,0,3,0c0.3,0,0.5,0.1,0.7,0.3c0.2,0.2,0.3,0.4,0.3,0.7c0,0.3-0.1,0.5-0.3,0.7c-0.2,0.2-0.4,0.3-0.7,0.3
		c-0.7,0-1.6,0-3,0c0,1,0,2.6,0,4.7c0,0.9,0.3,1.7,0.9,2.3c0.6,0.6,1.3,0.9,2.1,0.9c0.4,0,1.1,0,1.9,0c0.3,0,0.5,0.1,0.7,0.3
		c0.2,0.2,0.3,0.4,0.3,0.7c0,0.3-0.1,0.5-0.3,0.7c-0.2,0.2-0.4,0.3-0.7,0.3c-0.3,0-0.6,0-1.2,0c-0.2,0-0.4,0-0.8,0
		c-0.5,0-0.9-0.1-1.4-0.2c-0.4-0.1-0.9-0.3-1.2-0.6c-0.7-0.5-1.3-1.1-1.7-1.9c-0.4-0.8-0.6-1.6-0.6-2.6c0-0.8,0-2,0-3.6
		C300.7,275.7,300.7,273.7,300.7,271z"/>
</g>
<polyline class="st2" points="255,187 255,44 207,44 "/>
<polyline class="st2" points="251,184 255,188 259,184 "/>
<rect x="221.2" y="114" class="st3" width="68" height="23"/>
<g class="st0">
	<path class="st4" d="M234.1,121.2v8.8h-1.9v-8.8H234.1z"/>
	<path class="st4" d="M236.6,121.2h2.4l1.3,4c0.1,0.2,0.1,0.4,0.2,0.6c0.1,0.2,0.1,0.4,0.2,0.6c0.1,0.2,0.1,0.4,0.2,0.6
		c0,0.2,0.1,0.4,0.1,0.5h0.1c0-0.1,0.1-0.3,0.1-0.5c0-0.2,0.1-0.4,0.2-0.6c0.1-0.2,0.1-0.4,0.2-0.6c0.1-0.2,0.1-0.4,0.2-0.6l1.2-4
		h2.4l0.7,8.8H244c-0.1-1-0.1-1.9-0.2-2.9c-0.1-1-0.1-2-0.1-2.9l0-1.1h0c-0.1,0.5-0.3,1-0.4,1.6c-0.1,0.6-0.3,1-0.4,1.5l-1.2,3.9
		h-1.5l-1.3-3.9c-0.2-0.5-0.3-1-0.4-1.6c-0.1-0.6-0.3-1-0.3-1.5h0c0,0.3,0,0.7,0,1.1c0,0.4,0,0.7,0,1.1c0,0.4,0,0.7,0,1.1
		c0,0.4,0,0.7,0,1l-0.2,2.8h-1.8L236.6,121.2z"/>
	<path class="st4" d="M247.7,121.2h3.1c0.5,0,1,0.1,1.4,0.2s0.8,0.3,1.1,0.5c0.3,0.2,0.5,0.5,0.7,0.8c0.2,0.3,0.2,0.7,0.2,1.1
		c0,0.5-0.1,0.9-0.3,1.3c-0.2,0.4-0.4,0.7-0.8,0.9c-0.3,0.2-0.7,0.4-1.1,0.5c-0.4,0.1-0.9,0.2-1.4,0.2h-1v3.2h-1.9V121.2z
		 M249.6,125.3h0.8c0.2,0,0.5,0,0.7-0.1c0.2,0,0.4-0.1,0.6-0.2c0.2-0.1,0.3-0.2,0.4-0.4c0.1-0.2,0.1-0.4,0.1-0.7
		c0-0.5-0.2-0.8-0.5-1c-0.3-0.2-0.7-0.3-1.2-0.3h-0.9V125.3z"/>
	<path class="st4" d="M259.5,121c0.6,0,1.2,0.1,1.7,0.3s1,0.5,1.4,0.9c0.4,0.4,0.7,0.9,0.9,1.4c0.2,0.6,0.3,1.2,0.3,1.9
		c0,0.7-0.1,1.3-0.3,1.9c-0.2,0.6-0.5,1-0.9,1.4c-0.4,0.4-0.9,0.7-1.4,0.9c-0.5,0.2-1.1,0.3-1.7,0.3c-0.6,0-1.2-0.1-1.7-0.3
		c-0.5-0.2-1-0.5-1.4-0.9c-0.4-0.4-0.7-0.9-0.9-1.4c-0.2-0.6-0.3-1.2-0.3-1.9c0-0.7,0.1-1.3,0.3-1.9c0.2-0.6,0.5-1,0.9-1.4
		s0.9-0.7,1.4-0.9C258.3,121.1,258.9,121,259.5,121z M257.1,125.6c0,0.5,0.1,1,0.2,1.4c0.1,0.4,0.3,0.7,0.5,1
		c0.2,0.3,0.5,0.4,0.7,0.6c0.3,0.1,0.6,0.2,0.9,0.2c0.3,0,0.6-0.1,0.9-0.2c0.3-0.1,0.5-0.3,0.7-0.6c0.2-0.3,0.4-0.6,0.5-1
		c0.1-0.4,0.2-0.8,0.2-1.4c0-0.5-0.1-1-0.2-1.4c-0.1-0.4-0.3-0.7-0.5-1s-0.5-0.4-0.7-0.6c-0.3-0.1-0.6-0.2-0.9-0.2
		c-0.3,0-0.6,0.1-0.9,0.2c-0.3,0.1-0.5,0.3-0.7,0.6c-0.2,0.3-0.4,0.6-0.5,1C257.2,124.6,257.1,125.1,257.1,125.6z"/>
	<path class="st4" d="M265.4,121.2h3.3c0.5,0,0.9,0.1,1.3,0.2c0.4,0.1,0.7,0.3,0.9,0.6s0.4,0.5,0.6,0.9c0.1,0.3,0.2,0.7,0.2,1.1
		c0,0.4-0.1,0.7-0.2,0.9c-0.1,0.3-0.2,0.5-0.4,0.7c-0.2,0.2-0.3,0.4-0.5,0.5c-0.2,0.1-0.4,0.2-0.6,0.3l2.2,3.6H270l-1.7-3.2h-1v3.2
		h-1.9V121.2z M267.3,125.3h0.8c0.5,0,0.9-0.1,1.2-0.3c0.3-0.2,0.5-0.5,0.5-1c0-0.4-0.1-0.7-0.4-1c-0.3-0.2-0.6-0.3-1.1-0.3h-1
		V125.3z"/>
	<path class="st4" d="M279.3,121.2v1.5h-2.5v7.3h-1.9v-7.3h-2.4v-1.5H279.3z"/>
</g>
<g>
	<path class="st5" d="M279,257h-48c-3.3,0-6-2.7-6-6v-48c0-3.3,2.7-6,6-6h48c3.3,0,6,2.7,6,6v48C285,254.3,282.3,257,279,257z"/>
	<path class="st6" d="M262.5,214.5c-2.9,0-5.6,1.2-7.5,3.2c-1.9-1.9-4.6-3.2-7.5-3.2c-5.8,0-10.5,4.7-10.5,10.5v12.5
		c0,1.7,1.3,3,3,3s3-1.3,3-3V225c0-2.5,2-4.5,4.5-4.5s4.5,2,4.5,4.5v12.5c0,1.7,1.3,3,3,3c1.7,0,3-1.3,3-3V225c0-2.5,2-4.5,4.5-4.5
		s4.5,2,4.5,4.5v12.5c0,1.7,1.3,3,3,3s3-1.3,3-3V225C273,219.2,268.3,214.5,262.5,214.5z"/>
</g>
<g>
	<path class="st5" d="M89,257H41c-3.3,0-6-2.7-6-6v-48c0-3.3,2.7-6,6-6h48c3.3,0,6,2.7,6,6v48C95,254.3,92.3,257,89,257z"/>
	<path class="st6" d="M74.6,227H55.4c-2.4,0-4.4-2-4.4-4.5v-11c0-2.5,2-4.5,4.4-4.5h19.2c2.4,0,4.4,2,4.4,4.5v11
		C79,225,77,227,74.6,227z M55.4,211c-0.2,0-0.4,0.2-0.4,0.5v11c0,0.3,0.2,0.5,0.4,0.5h19.2c0.2,0,0.4-0.2,0.4-0.5v-11
		c0-0.3-0.2-0.5-0.4-0.5H55.4z"/>
	<path class="st6" d="M71,233H59c-1.1,0-2-0.9-2-2s0.9-2,2-2h12c1.1,0,2,0.9,2,2S72.1,233,71,233z"/>
	<rect x="35" y="243" class="st6" width="60" height="4"/>
	<g>
		<circle class="st5" cx="65" cy="245" r="4"/>
		<path class="st6" d="M65,243c1.1,0,2,0.9,2,2s-0.9,2-2,2c-1.1,0-2-0.9-2-2S63.9,243,65,243 M65,239c-3.3,0-6,2.7-6,6s2.7,6,6,6
			s6-2.7,6-6S68.3,239,65,239L65,239z"/>
	</g>
</g>
<path class="st2" d="M201,2h-70.5c-3,0-5.5,2.5-5.5,5.5V46"/>
<path class="st2" d="M200.5,12.8h0.3c2.9,0,5.3-2.4,5.3-5.2v0c0-3-2.5-5.5-5.5-5.5l0,0c-3,0-5.5,2.5-5.5,5.5v73c0,3-2.5,5.5-5.5,5.5
	h-63c-3,0-5.5-2.5-5.5-5.5v0c0-3,2.5-5.5,5.5-5.5h61.3"/>
<path class="st2" d="M183,80.5c0-3,2.5-5.5,5.5-5.5"/>
<path class="st2" d="M188.5,86c-3,0-5.5-2.5-5.5-5.5"/>
<line class="st2" x1="125" y1="51" x2="125" y2="59"/>
<line class="st2" x1="125" y1="64" x2="125" y2="67"/>
<polyline class="st2" points="132,30 132,9 148,9 "/>
<line class="st2" x1="132" y1="35.3" x2="132" y2="40"/>
<line class="st2" x1="139" y1="17" x2="183" y2="17"/>
<line class="st2" x1="139" y1="25" x2="163" y2="25"/>
<line class="st2" x1="139" y1="33" x2="183" y2="33"/>
<line class="st2" x1="139" y1="41" x2="163" y2="41"/>
<polyline class="st2" points="137,54 132,59 137,64 "/>
<polyline class="st2" points="182,64 187,59 182,54 "/>
<path class="st2" d="M141,54h5v7.5c0,1.4-1.1,2.5-2.5,2.5l0,0c-1.4,0-2.5-1.1-2.5-2.5V61"/>
<path class="st2" d="M156,54h-3.5c-1.4,0-2.5,1.1-2.5,2.5v0c0,1.4,1.1,2.5,2.5,2.5h1c1.4,0,2.5,1.1,2.5,2.5v0c0,1.4-1.1,2.5-2.5,2.5
	H150"/>
<path class="st2" d="M160,60.5v-3c0-1.9,1.6-3.5,3.5-3.5l0,0c1.9,0,3.5,1.6,3.5,3.5v3c0,1.9-1.6,3.5-3.5,3.5l0,0
	C161.6,64,160,62.4,160,60.5z"/>
<polyline class="st2" points="171,64 171,54 178,64 178,54 "/>
</svg>
