<?xml version="1.0" encoding="utf-8"?>
<!-- Generator: Adobe Illustrator 22.1.0, SVG Export Plug-In . SVG Version: 6.00 Build 0)  -->
<svg version="1.1" id="Layer_1" xmlns="http://www.w3.org/2000/svg" xmlns:xlink="http://www.w3.org/1999/xlink" x="0px" y="0px"
	 width="146px" height="40px" viewBox="0 0 146 40" enable-background="new 0 0 146 40" xml:space="preserve">
<path fill="#5767FF" d="M34.4,38H5.6c-2,0-3.6-1.6-3.6-3.6V5.6C2,3.6,3.6,2,5.6,2h28.8c2,0,3.6,1.6,3.6,3.6v28.8
	C38,36.4,36.4,38,34.4,38z"/>
<path fill="#FFFFFF" d="M24.5,12.5c-1.8,0-3.4,0.7-4.5,1.9c-1.1-1.2-2.7-1.9-4.5-1.9c-3.5,0-6.3,2.8-6.3,6.3v7.5
	c0,1,0.8,1.8,1.8,1.8s1.8-0.8,1.8-1.8v-7.5c0-1.5,1.2-2.7,2.7-2.7s2.7,1.2,2.7,2.7v7.5c0,1,0.8,1.8,1.8,1.8s1.8-0.8,1.8-1.8v-7.5
	c0-1.5,1.2-2.7,2.7-2.7s2.7,1.2,2.7,2.7v7.5c0,1,0.8,1.8,1.8,1.8s1.8-0.8,1.8-1.8v-7.5C30.8,15.3,28,12.5,24.5,12.5z"/>
<g>
	<path fill="#46474F" d="M62.3,14.6c-1.5,0-2.8,0.7-3.6,1.7c-0.8-1-2.1-1.7-3.6-1.7c-2.5,0-4.5,1.9-4.5,4.3v5.6
		c0,0.5,0.4,0.9,0.9,0.9s0.9-0.4,0.9-0.9v-5.6c0-1.4,1.2-2.5,2.7-2.5s2.7,1.1,2.7,2.5v5.6c0,0.5,0.4,0.9,0.9,0.9s0.9-0.4,0.9-0.9
		v-5.6c0-1.4,1.2-2.5,2.7-2.5s2.7,1.1,2.7,2.5v5.6c0,0.5,0.4,0.9,0.9,0.9s0.9-0.4,0.9-0.9v-5.6C66.8,16.5,64.8,14.6,62.3,14.6z"/>
	<path fill="#46474F" d="M101.9,14.6c-2.5,0-4.5,2.1-4.5,4.6v5.3c0,0.5,0.4,0.9,0.9,0.9s0.9-0.4,0.9-0.9v-5.3c0-1.5,1.2-2.8,2.7-2.8
		s2.7,1.3,2.7,2.8c0,0.5,0.4,0.9,0.9,0.9s0.9-0.4,0.9-0.9C106.4,16.7,104.4,14.6,101.9,14.6z"/>
	<path fill="#46474F" d="M70.4,14.6c-0.5,0-0.9,0.4-0.9,0.9v9c0,0.5,0.4,0.9,0.9,0.9s0.9-0.4,0.9-0.9v-9
		C71.3,15,70.9,14.6,70.4,14.6z"/>
	<path fill="#46474F" d="M124.4,23.6h-1.7c-1.5,0-2.8-1.3-2.8-2.9v-4.3h2.7c0.5,0,0.9-0.4,0.9-0.9c0-0.5-0.4-0.9-0.9-0.9h-2.7v-2.7
		c0-0.5-0.4-0.9-0.9-0.9s-0.9,0.4-0.9,0.9v8.8c0,2.6,2,4.7,4.6,4.7h1.7c0.5,0,0.9-0.4,0.9-0.9S124.9,23.6,124.4,23.6z"/>
	<path fill="#46474F" d="M135.2,14.6c-0.5,0-0.9,0.4-0.9,0.9V16c-1-0.9-2.2-1.4-3.6-1.4c-3,0-5.4,2.4-5.4,5.4s2.4,5.4,5.4,5.4
		c1.4,0,2.6-0.5,3.6-1.4v0.5c0,0.5,0.4,0.9,0.9,0.9s0.9-0.4,0.9-0.9v-9C136.1,15,135.7,14.6,135.2,14.6z M130.7,23.6
		c-2,0-3.6-1.6-3.6-3.6s1.6-3.6,3.6-3.6s3.6,1.6,3.6,3.6S132.7,23.6,130.7,23.6z"/>
	<path fill="#46474F" d="M110.9,16.7c0.4-0.2,0.9-0.3,1.4-0.3c1.2,0,2,0.3,2.4,0.9c0.3,0.4,0.8,0.5,1.2,0.2c0.4-0.3,0.5-0.8,0.2-1.2
		c-0.8-1.1-2.1-1.7-3.9-1.7c-0.8,0-1.5,0.2-2.2,0.5c-1.1,0.6-1.7,1.6-1.6,2.8s0.9,2.2,2.1,2.5l2.8,0.9c0.6,0.2,0.8,0.6,0.9,1
		c0,0.2,0,0.7-0.6,1c-0.4,0.2-0.9,0.4-1.4,0.4c-1.2,0-2-0.3-2.4-0.9c-0.3-0.4-0.8-0.5-1.2-0.2c-0.4,0.3-0.5,0.8-0.2,1.2
		c0.8,1.1,2.1,1.7,3.9,1.7c0.8,0,1.6-0.2,2.3-0.6c1-0.6,1.6-1.6,1.5-2.8c-0.1-1.2-0.9-2.2-2.1-2.5l-2.8-0.9c-0.5-0.2-0.8-0.5-0.9-1
		C110.2,17.5,110.2,17,110.9,16.7z"/>
	<path fill="#46474F" d="M95.6,19.5L95.6,19.5c-0.3-2.8-2.6-4.9-5.4-4.9c-3,0-5.4,2.4-5.4,5.4s2.4,5.4,5.4,5.4c1.5,0,3-0.7,4-1.8
		c0.3-0.4,0.3-0.9-0.1-1.3s-0.9-0.3-1.3,0.1c-0.7,0.8-1.7,1.2-2.7,1.2c-1.7,0-3.1-1.1-3.5-2.7h8c0.5,0,0.9-0.4,0.9-0.9
		C95.6,19.8,95.6,19.7,95.6,19.5L95.6,19.5z M86.7,19.1c0.4-1.6,1.8-2.7,3.5-2.7s3.1,1.1,3.5,2.7H86.7z"/>
	<path fill="#46474F" d="M70.4,11c-0.5,0-0.9,0.4-0.9,0.9l0,0c0,0.5,0.4,0.9,0.9,0.9s0.9-0.4,0.9-0.9l0,0C71.3,11.4,70.9,11,70.4,11
		z"/>
	<path fill="#46474F" d="M78.5,14.6c-2.5,0-4.5,2.1-4.5,4.6v5.3c0,0.5,0.4,0.9,0.9,0.9s0.9-0.4,0.9-0.9v-5.3c0-1.5,1.2-2.8,2.7-2.8
		s2.7,1.3,2.7,2.8v5.3c0,0.5,0.4,0.9,0.9,0.9S83,25,83,24.5v-5.3C83,16.7,81,14.6,78.5,14.6z"/>
	<path fill="#46474F" d="M145.1,23.6h-1.7c-1.5,0-2.8-1.3-2.8-2.9v-4.3h2.7c0.5,0,0.9-0.4,0.9-0.9c0-0.5-0.4-0.9-0.9-0.9h-2.7v-2.7
		c0-0.5-0.4-0.9-0.9-0.9s-0.9,0.4-0.9,0.9v8.8c0,2.6,2,4.7,4.6,4.7h1.7c0.5,0,0.9-0.4,0.9-0.9S145.6,23.6,145.1,23.6z"/>
</g>
</svg>
